<svg width="80" height="60" viewBox="0 0 80 60" fill="none" xmlns="http://www.w3.org/2000/svg">
    <path
        d="M32.6348 3.58896L49.0818 4.01496C49.4118 4.02396 49.7268 4.15896 49.9618 4.39496L59.9148 14.348C60.7989 15.229 61.3172 16.4117 61.3658 17.659L61.8798 30.529C61.8998 31.032 62.3128 31.424 62.8168 31.423L72.4118 31.373C73.5872 31.3732 74.7146 31.8398 75.5464 32.6703C76.3783 33.5009 76.8466 34.6275 76.8488 35.803V36.063C76.8488 37.227 76.3958 38.322 75.5718 39.145C75.1677 39.551 74.6873 39.8729 74.1581 40.0921C73.6289 40.3113 73.0615 40.4234 72.4888 40.422H56.7188C54.3718 40.422 52.3258 38.377 52.3258 36.029L52.3248 27.624L40.2748 27.615L40.2848 42.785C40.2858 43.211 40.0748 43.611 39.7248 43.852L21.6268 56.262C20.2638 57.111 18.6688 57.295 17.2008 56.799C16.4497 56.5457 15.7673 56.1223 15.2068 55.562C14.6827 55.0366 14.2761 54.406 14.0138 53.712C13.1388 51.419 14.0878 48.778 16.2698 47.435L28.5728 38.462L28.8248 27.182L15.2688 27.624C15.0919 27.6301 14.9157 27.5997 14.7511 27.5349C14.5865 27.47 14.4369 27.372 14.3118 27.247L1.51475 14.449C0.514753 13.45 -0.0352465 12.069 0.00175346 10.657C0.0176328 9.95406 0.177998 9.26194 0.47287 8.62368C0.767742 7.98542 1.19081 7.41468 1.71575 6.94696C3.75775 5.10696 6.94975 5.25896 8.98275 7.29196L17.5588 15.868L47.0028 14.233L44.8698 12.1L32.6068 12.447C31.9993 12.4708 31.3934 12.3695 30.8267 12.1493C30.2601 11.9291 29.7447 11.5947 29.3128 11.167L29.2968 11.152C28.8636 10.7206 28.5249 10.2038 28.3021 9.6345C28.0793 9.06519 27.9774 8.45577 28.0028 7.84496C28.0828 5.49796 30.1628 3.58996 32.6348 3.58896V3.58896ZM66.4148 15.363C69.4398 12.338 74.3598 12.338 77.3848 15.363C80.4088 18.388 80.4088 23.307 77.3848 26.333C74.3598 29.357 69.4398 29.357 66.4148 26.333C63.3908 23.307 63.3898 18.388 66.4148 15.363Z"
        fill="#29BA66" />
</svg>