<svg width="80" height="60" viewBox="0 0 80 60" fill="none" xmlns="http://www.w3.org/2000/svg">
    <g clip-path="url(#clip0_3_64)">
        <path
            d="M64.91 62.846L77.224 42.954C80.541 37.594 81.004 29.136 74.914 23.046L48.554 -3.314C44.097 -7.771 35.968 -10.157 28.646 -5.624L8.75297 6.69C3.35297 10.033 2.47797 17.544 6.97397 22.04C7.92058 22.9815 9.09374 23.6634 10.3804 24.0198C11.6671 24.3762 13.0238 24.3952 14.32 24.075L22.103 22.13C22.7612 21.9672 23.4503 21.9767 24.1038 22.1576C24.7573 22.3386 25.3532 22.6848 25.834 23.163L48.436 45.765C49.406 46.735 49.803 48.165 49.469 49.497L47.524 57.279C47.2036 58.5758 47.2228 59.9332 47.5796 61.2204C47.9364 62.5076 48.6188 63.6812 49.561 64.628C54.051 69.118 61.564 68.252 64.91 62.846V62.846ZM40.683 16.726L38.792 14.834L36.9 16.726C36.4597 17.1599 35.8657 17.4022 35.2475 17.3999C34.6293 17.3976 34.0371 17.1511 33.6 16.714C33.1629 16.2768 32.9163 15.6846 32.9141 15.0665C32.9118 14.4483 33.1541 13.8543 33.588 13.414L35.48 11.522L33.588 9.631C33.1541 9.1907 32.9118 8.59671 32.9141 7.97854C32.9163 7.36036 33.1629 6.76816 33.6 6.33104C34.0371 5.89392 34.6293 5.64735 35.2475 5.6451C35.8657 5.64284 36.4597 5.88508 36.9 6.319L38.792 8.21L40.683 6.319C41.1233 5.88508 41.7173 5.64284 42.3354 5.6451C42.9536 5.64735 43.5458 5.89392 43.9829 6.33104C44.4201 6.76816 44.6666 7.36036 44.6689 7.97854C44.6711 8.59671 44.4289 9.1907 43.995 9.631L42.104 11.522L43.995 13.414C44.4289 13.8543 44.6711 14.4483 44.6689 15.0665C44.6666 15.6846 44.4201 16.2768 43.9829 16.714C43.5458 17.1511 42.9536 17.3976 42.3354 17.3999C41.7173 17.4022 41.1233 17.1599 40.683 16.726V16.726ZM54.873 30.916C54.6551 30.6984 54.4823 30.44 54.3643 30.1556C54.2464 29.8712 54.1857 29.5663 54.1856 29.2584C54.1856 28.9505 54.2463 28.6456 54.3641 28.3612C54.482 28.0767 54.6548 27.8183 54.8726 27.6007C55.0905 27.383 55.349 27.2105 55.6336 27.0929C55.9181 26.9752 56.2231 26.9149 56.531 26.9152C56.8389 26.9155 57.1437 26.9765 57.428 27.0947C57.7124 27.2129 57.9706 27.3859 58.188 27.604C58.6146 28.046 58.8506 28.6379 58.845 29.2523C58.8395 29.8666 58.5929 30.4541 58.1584 30.8884C57.7239 31.3227 57.1361 31.5689 56.5218 31.5741C55.9075 31.5792 55.3157 31.3429 54.874 30.916H54.873ZM54.873 38.012C54.4515 37.5691 54.2198 36.979 54.2274 36.3676C54.235 35.7562 54.4813 35.172 54.9137 34.7398C55.3461 34.3075 55.9304 34.0614 56.5418 34.0539C57.1531 34.0465 57.7432 34.2784 58.186 34.7C58.6036 35.1435 58.832 35.7323 58.8228 36.3414C58.8137 36.9505 58.5676 37.5321 58.1368 37.9629C57.7061 38.3936 57.1245 38.6397 56.5154 38.6488C55.9062 38.658 55.3175 38.4296 54.874 38.012H54.873ZM61.969 30.917C61.6411 30.5894 61.4177 30.1719 61.3271 29.7174C61.2366 29.2628 61.2828 28.7916 61.4601 28.3634C61.6374 27.9351 61.9377 27.5691 62.3231 27.3115C62.7084 27.054 63.1615 26.9165 63.625 26.9165C64.0885 26.9165 64.5415 27.054 64.9269 27.3115C65.3122 27.5691 65.6126 27.9351 65.7898 28.3634C65.9671 28.7916 66.0134 29.2628 65.9228 29.7174C65.8322 30.1719 65.6089 30.5894 65.281 30.917C64.8416 31.3559 64.246 31.6025 63.625 31.6025C63.0039 31.6025 62.4083 31.3559 61.969 30.917V30.917ZM61.969 38.012C61.5514 37.5685 61.323 36.9797 61.3321 36.3706C61.3413 35.7615 61.5873 35.1799 62.0181 34.7491C62.4489 34.3184 63.0305 34.0723 63.6396 34.0632C64.2487 34.054 64.8374 34.2824 65.281 34.7C65.6986 35.1435 65.927 35.7323 65.9178 36.3414C65.9087 36.9505 65.6626 37.5321 65.2318 37.9629C64.8011 38.3936 64.2195 38.6397 63.6104 38.6488C63.0012 38.658 62.4125 38.4296 61.969 38.012V38.012Z"
            fill="#3F9CBB" />
    </g>
    <defs>
        <clipPath id="clip0_3_64">
            <rect width="80" height="60" fill="white" />
        </clipPath>
    </defs>
</svg>