<svg width="80" height="60" viewBox="0 0 80 60" fill="none" xmlns="http://www.w3.org/2000/svg">
    <g clip-path="url(#clip0_3_63)">
        <path
            d="M14.918 46.848C15.032 48.571 15.15 50.348 15.264 52.184L15.267 52.222L15.715 58.26C15.775 59.07 16.127 59.796 16.666 60.335C17.206 60.875 17.932 61.227 18.741 61.287L24.779 61.734L24.817 61.737C36.903 62.492 46.054 62.968 53.767 62.221C62.774 61.348 69.136 58.776 73.787 54.125C82.2 45.712 82.185 32.516 73.753 24.084C69.963 20.294 64.794 17.974 59.443 17.558C59.028 12.206 56.707 7.038 52.917 3.248C44.484 -5.185 31.288 -5.2 22.875 3.214C12.705 13.384 13.585 26.697 14.918 46.848ZM35.36 23.122L41.532 29.295L47.692 23.136L53.864 29.309L47.704 35.467L53.877 41.64L47.719 47.798L41.546 41.626L35.388 47.784L29.215 41.612L35.374 35.453L29.201 29.281L35.361 23.122H35.36Z"
            fill="#E6A532" />
    </g>
    <defs>
        <clipPath id="clip0_3_63">
            <rect width="80" height="60" fill="white" />
        </clipPath>
    </defs>
</svg>