<svg width="80" height="60" viewBox="0 0 80 60" fill="none" xmlns="http://www.w3.org/2000/svg">
    <g clip-path="url(#clip0_3_60)">
        <path
            d="M56.7732 31.1042C61.5532 35.8842 69.8732 36.8582 76.0302 30.7012C81.2302 25.5022 81.2282 17.0442 76.0302 11.8462L58.0902 -6.09476C53.2742 -10.9088 44.9592 -11.8228 38.8312 -5.69276C34.1302 -0.99276 33.6802 6.37324 37.4792 11.5842L31.2142 17.8492C29.8752 19.1882 30.8972 21.4932 32.7992 21.3822L46.2732 20.6052L56.7722 31.1042H56.7732ZM68.1772 19.6212C68.4205 19.8584 68.6144 20.1416 68.7475 20.4542C68.8805 20.7669 68.9502 21.1029 68.9524 21.4427C68.9547 21.7825 68.8894 22.1194 68.7604 22.4338C68.6315 22.7482 68.4413 23.0338 68.2011 23.2742C67.9609 23.5145 67.6754 23.7048 67.361 23.8339C67.0467 23.9631 66.7099 24.0285 66.3701 24.0265C66.0303 24.0244 65.6942 23.955 65.3815 23.822C65.0688 23.6891 64.7855 23.4955 64.5482 23.2522C64.0667 22.7709 63.7961 22.1179 63.796 21.4371C63.7959 20.7562 64.0663 20.1032 64.5477 19.6217C65.0291 19.1402 65.682 18.8697 66.3628 18.8696C67.0437 18.8695 67.6967 19.1399 68.1782 19.6212H68.1772ZM46.6842 5.38624C46.4377 5.14974 46.2409 4.86642 46.1053 4.55288C45.9697 4.23935 45.8981 3.9019 45.8946 3.56032C45.8911 3.21874 45.9558 2.87989 46.0849 2.56364C46.214 2.24738 46.4049 1.96008 46.6465 1.71857C46.8881 1.47705 47.1755 1.28619 47.4918 1.15715C47.808 1.02811 48.1469 0.963503 48.4885 0.967105C48.8301 0.970707 49.1675 1.04245 49.481 1.17812C49.7945 1.3138 50.0778 1.51069 50.3142 1.75724C50.7856 2.24066 51.0476 2.89035 51.0433 3.56556C51.0391 4.24078 50.769 4.88713 50.2915 5.36459C49.8141 5.84205 49.1677 6.11216 48.4925 6.1164C47.8173 6.12064 47.1676 5.85867 46.6842 5.38724V5.38624ZM59.2462 10.6892C59.4895 10.9265 59.6832 11.2097 59.8162 11.5224C59.9492 11.8351 60.0188 12.1711 60.0209 12.5109C60.0231 12.8507 59.9577 13.1876 59.8287 13.5019C59.6996 13.8163 59.5094 14.1019 59.2691 14.3422C59.0288 14.5825 58.7432 14.7726 58.4289 14.9017C58.1145 15.0308 57.7777 15.0961 57.4379 15.094C57.0981 15.0918 56.7621 15.0223 56.4493 14.8893C56.1366 14.7563 55.8534 14.5625 55.6162 14.3192C55.1448 13.8358 54.8828 13.1861 54.887 12.5109C54.8913 11.8357 55.1614 11.1893 55.6388 10.7119C56.1163 10.2344 56.7627 9.96432 57.4379 9.96008C58.1131 9.95584 58.7628 10.2178 59.2462 10.6892V10.6892ZM66.0992 48.1752L48.1582 30.2332C42.9602 25.0362 34.5002 25.0362 29.3012 30.2342C23.2292 36.3072 24.0412 44.6342 28.8992 49.4922L39.3982 59.9922L38.6212 73.4652C38.5112 75.3512 40.8072 76.3962 42.1542 75.0492L48.4192 68.7842C53.6312 72.5842 60.9962 72.1332 65.6962 67.4322C71.7562 61.3732 70.9702 53.0462 66.0992 48.1752V48.1752ZM36.7522 41.7172C36.5138 41.4789 36.3246 41.1959 36.1956 40.8845C36.0665 40.573 36.0001 40.2392 36 39.9021C36 39.565 36.0663 39.2311 36.1953 38.9197C36.3243 38.6082 36.5133 38.3252 36.7517 38.0867C36.99 37.8483 37.273 37.6592 37.5845 37.5301C37.8959 37.4011 38.2297 37.3346 38.5668 37.3346C38.904 37.3345 39.2378 37.4009 39.5493 37.5299C39.8607 37.6588 40.1438 37.8479 40.3822 38.0862C40.8536 38.5697 41.1156 39.2194 41.1113 39.8946C41.1071 40.5698 40.837 41.2161 40.3595 41.6936C39.8821 42.1711 39.2357 42.4412 38.5605 42.4454C37.8853 42.4496 37.2356 42.1877 36.7522 41.7162V41.7172ZM45.6842 50.6482C45.4377 50.4117 45.2409 50.1284 45.1053 49.8149C44.9697 49.5013 44.8981 49.1639 44.8946 48.8223C44.8911 48.4807 44.9558 48.1419 45.0849 47.8256C45.214 47.5094 45.4049 47.2221 45.6465 46.9806C45.8881 46.7391 46.1755 46.5482 46.4918 46.4192C46.808 46.2901 47.1469 46.2255 47.4885 46.2291C47.8301 46.2327 48.1675 46.3044 48.481 46.4401C48.7945 46.5758 49.0778 46.7727 49.3142 47.0192C49.7856 47.5027 50.0476 48.1524 50.0433 48.8276C50.0391 49.5028 49.769 50.1491 49.2915 50.6266C48.8141 51.1041 48.1677 51.3742 47.4925 51.3784C46.8173 51.3826 46.1676 51.1207 45.6842 50.6492V50.6482ZM54.6162 59.5812C54.3778 59.3429 54.1886 59.0599 54.0596 58.7485C53.9305 58.437 53.8641 58.1032 53.864 57.7661C53.864 57.429 53.9303 57.0951 54.0593 56.7837C54.1883 56.4722 54.3773 56.1892 54.6157 55.9507C54.854 55.7123 55.137 55.5232 55.4485 55.3941C55.7599 55.2651 56.0937 55.1986 56.4308 55.1986C56.768 55.1985 57.1018 55.2649 57.4133 55.3939C57.7247 55.5228 58.0078 55.7119 58.2462 55.9502C58.7176 56.4337 58.9796 57.0834 58.9753 57.7586C58.9711 58.4338 58.701 59.0801 58.2235 59.5576C57.7461 60.0351 57.0997 60.3052 56.4245 60.3094C55.7493 60.3136 55.0996 60.0517 54.6162 59.5802V59.5812Z"
            fill="#5A1CBD" />
    </g>
    <defs>
        <clipPath id="clip0_3_60">
            <rect width="80" height="60" fill="white" />
        </clipPath>
    </defs>
</svg>