<svg width="80" height="60" viewBox="0 0 80 60" fill="none" xmlns="http://www.w3.org/2000/svg">
    <g clip-path="url(#clip0_3_62)">
        <path
            d="M34.227 -8.505C34.4007 -8.67886 34.6069 -8.81678 34.8339 -8.91088C35.0609 -9.00499 35.3042 -9.05342 35.55 -9.05342C35.7957 -9.05342 36.0391 -9.00499 36.2661 -8.91088C36.4931 -8.81678 36.6993 -8.67886 36.873 -8.505L38.196 -7.182L10.416 20.598C8.22699 22.787 8.31599 26.435 10.504 28.624L22.636 40.756C22.1374 41.8038 21.975 42.9801 22.1712 44.1238C22.3675 45.2674 22.9126 46.3224 23.732 47.144C24.5536 47.9637 25.6087 48.5092 26.7525 48.7056C27.8964 48.902 29.073 48.7397 30.121 48.241L42.253 60.373C44.441 62.561 48.09 62.649 50.278 60.461L78.058 32.681L79.381 34.003C79.5548 34.1767 79.6928 34.3829 79.7869 34.6099C79.881 34.8369 79.9294 35.0803 79.9294 35.326C79.9294 35.5717 79.881 35.8151 79.7869 36.0421C79.6928 36.2691 79.5548 36.4753 79.381 36.649L47.632 68.4C47.4583 68.5737 47.2522 68.7115 47.0252 68.8055C46.7983 68.8995 46.5551 68.9479 46.3095 68.9479C46.0639 68.9479 45.8206 68.8995 45.5937 68.8055C45.3668 68.7115 45.1606 68.5737 44.987 68.4L30.12 53.531C29.072 54.0297 27.8954 54.192 26.7515 53.9956C25.6077 53.7992 24.5526 53.2537 23.731 52.434L18.44 47.143C17.6205 46.3215 17.0751 45.2666 16.8787 44.1229C16.6823 42.9793 16.8445 41.8029 17.343 40.755L2.47799 25.89C2.30413 25.7163 2.16621 25.5101 2.0721 25.2831C1.978 25.0561 1.92957 24.8127 1.92957 24.567C1.92957 24.3213 1.978 24.0779 2.0721 23.8509C2.16621 23.6239 2.30413 23.4177 2.47799 23.244L34.227 -8.505ZM60.74 12.783C62.688 13.053 64.57 13.9 66.065 15.395L76.648 25.978C76.8218 26.1517 76.9598 26.3579 77.0539 26.5849C77.148 26.8119 77.1964 27.0553 77.1964 27.301C77.1964 27.5467 77.148 27.7901 77.0539 28.0171C76.9598 28.2441 76.8218 28.4503 76.648 28.624L47.544 57.727C47.3703 57.9009 47.1641 58.0388 46.9371 58.1329C46.7101 58.227 46.4667 58.2754 46.221 58.2754C45.9752 58.2754 45.7319 58.227 45.5049 58.1329C45.2779 58.0388 45.0717 57.9009 44.898 57.727L31.67 44.498C31.319 44.1474 30.8431 43.9504 30.347 43.9504C29.8508 43.9504 29.375 44.1474 29.024 44.498L60.74 12.783ZM50.19 -3.125C50.3637 -3.29901 50.57 -3.43706 50.7971 -3.53125C51.0242 -3.62544 51.2676 -3.67392 51.5135 -3.67392C51.7593 -3.67392 52.0028 -3.62544 52.2299 -3.53125C52.457 -3.43706 52.6633 -3.29901 52.837 -3.125C57.326 1.364 58.714 5.855 59.015 9.217L28.67 39.56C29.019 38.033 29.851 32.097 23.732 25.978C23.5581 25.8043 23.4202 25.5981 23.3261 25.3711C23.232 25.1441 23.1836 24.9007 23.1836 24.655C23.1836 24.4093 23.232 24.1659 23.3261 23.9389C23.4202 23.7119 23.5581 23.5057 23.732 23.332L50.19 -3.125ZM42.254 -5.771C42.4276 -5.94471 42.6338 -6.0825 42.8607 -6.17652C43.0876 -6.27053 43.3309 -6.31892 43.5765 -6.31892C43.8221 -6.31892 44.0653 -6.27053 44.2922 -6.17652C44.5192 -6.0825 44.7253 -5.94471 44.899 -5.771L46.222 -4.448L21.088 20.686C20.0368 21.7394 19.4464 23.1668 19.4464 24.655C19.4464 26.1432 20.0368 27.5706 21.088 28.624C25.093 32.629 25.288 36.32 25.131 37.959L13.15 25.978C12.9761 25.8043 12.8382 25.5981 12.7441 25.3711C12.65 25.1441 12.6016 24.9007 12.6016 24.655C12.6016 24.4093 12.65 24.1659 12.7441 23.9389C12.8382 23.7119 12.9761 23.5057 13.15 23.332L42.254 -5.771Z"
            fill="#F04667" />
    </g>
    <defs>
        <clipPath id="clip0_3_62">
            <rect width="80" height="60" fill="white" />
        </clipPath>
    </defs>
</svg>