<svg width="80" height="60" viewBox="0 0 80 60" fill="none" xmlns="http://www.w3.org/2000/svg">
    <g clip-path="url(#clip0_3_61)">
        <path
            d="M19.687 0.430001L35.151 31.336C35.461 32.018 35.894 32.658 36.451 33.216C37.009 33.773 37.649 34.206 38.165 34.433L69.237 49.98L53.484 65.732C52.7387 66.4781 51.8537 67.07 50.8795 67.4738C49.9053 67.8776 48.8611 68.0854 47.8065 68.0854C46.752 68.0854 45.7077 67.8776 44.7335 67.4738C43.7594 67.07 42.8743 66.4781 42.129 65.732L3.93402 27.538C3.18779 26.7927 2.59579 25.9076 2.19188 24.9333C1.78798 23.959 1.58008 22.9147 1.58008 21.86C1.58008 20.8053 1.78798 19.761 2.19188 18.7867C2.59579 17.8124 3.18779 16.9273 3.93402 16.182L19.687 0.430001ZM39.032 -7.56L49.871 3.278L51.936 1.214C53.0318 0.120319 54.5168 -0.493925 56.065 -0.493925C57.6132 -0.493925 59.0982 0.120319 60.194 1.214L68.452 9.473C69.5457 10.5688 70.1599 12.0538 70.1599 13.602C70.1599 15.1502 69.5457 16.6352 68.452 17.731L66.388 19.795L77.227 30.635C77.9731 31.3803 78.565 32.2653 78.9688 33.2395C79.3726 34.2137 79.5805 35.2579 79.5805 36.3125C79.5805 37.3671 79.3726 38.4113 78.9688 39.3855C78.565 40.3597 77.9731 41.2447 77.227 41.99L72.499 46.718L40.126 30.53C39.9098 30.4286 39.714 30.2887 39.548 30.117C39.3763 29.9511 39.2364 29.7552 39.135 29.539L22.95 -2.832L27.678 -7.56C28.4233 -8.30608 29.3084 -8.89795 30.2825 -9.30177C31.2567 -9.70559 32.301 -9.91344 33.3555 -9.91344C34.4101 -9.91344 35.4543 -9.70559 36.4285 -9.30177C37.4027 -8.89795 38.2877 -8.30608 39.033 -7.56H39.032ZM56.065 5.343L54.001 7.408L62.259 15.666L64.323 13.602L56.065 5.343Z"
            fill="#D96C47" />
    </g>
    <defs>
        <clipPath id="clip0_3_61">
            <rect width="80" height="60" fill="white" />
        </clipPath>
    </defs>
</svg>